# File created by Blade
# Date/Time:  Thu Jan 22 15:49:58 2015
# Frame Rate: 120.000 fps
#------------------------------------------------------
:FULLY-SPECIFIED
:DEGREES
1645
root 3.001020 37.044847 4.699590 -3.859408 -1.039220 2.896994
RightUpLeg 12.018564 -7.651358 -5.767986
RightLeg -5.185303 -0.000000 0.000000
RightFoot -12.607136 -13.050470 16.507779
RightToeBase 15.287123 -0.000000 -0.000000
LeftUpLeg 9.783873 4.749208 1.742495
LeftLeg -2.362644 -0.000000 0.000000
LeftFoot -6.953334 7.196721 -16.622122
LeftToeBase 8.495444 -0.000000 -0.000000
Spine 9.352525 -10.448613 -4.920902
RightShoulder -1.191104 -26.823586 -11.925710
RightArm 20.659504 -18.669647 58.160876
RightForeArm 10.174588 0.000000 25.542874
RightHand 0.808165 -0.000000 2.225139
RightHandThumb1 -24.326973 -0.000000 -32.862282
LeftShoulder -25.097287 40.790216 -1.824751
LeftArm 39.186083 -1.150457 -66.905376
LeftForeArm 16.500036 -0.000000 16.443910
LeftHand -28.083692 0.000000 1.202881
LeftHandThumb1 -26.253704 0.000000 33.147579
Head -9.072404 20.919507 -7.180796
1646
root 3.007939 37.044393 4.675112 -3.903336 -1.114221 2.900597
RightUpLeg 12.009703 -7.637859 -5.780269
RightLeg -5.190012 -0.000000 0.000000
RightFoot -12.588127 -13.020833 16.505848
RightToeBase 15.349876 -0.000000 -0.000000
LeftUpLeg 9.809982 4.791669 1.736939
LeftLeg -2.390316 -0.000000 0.000000
LeftFoot -6.917624 7.215183 -16.571834
LeftToeBase 8.483705 -0.000000 -0.000000
Spine 9.331647 -10.371722 -4.954136
RightShoulder -0.872833 -26.389256 -12.009461
RightArm 21.430856 -18.808606 57.821788
RightForeArm 10.837035 -0.000000 26.702454
RightHand 1.069811 0.000000 1.408575
RightHandThumb1 -24.326973 -0.000000 -32.862282
LeftShoulder -24.643128 40.430395 -1.708438
LeftArm 39.664441 -0.669282 -66.718464
LeftForeArm 16.368744 -0.000000 16.883820
LeftHand -28.080679 -0.000000 1.726877
LeftHandThumb1 -26.253704 0.000000 33.147579
Head -8.684355 20.398846 -6.824308
1647
root 3.017276 37.044014 4.649836 -3.980774 -1.202329 2.923937
RightUpLeg 12.056062 -7.598741 -5.827752
RightLeg -5.243042 -0.000000 0.000000
RightFoot -12.515112 -12.950377 16.467792
RightToeBase 15.390400 -0.000000 -0.000000
LeftUpLeg 9.858639 4.763352 1.696068
LeftLeg -2.389395 -0.000000 0.000000
LeftFoot -6.928200 7.311565 -16.597399
LeftToeBase 8.480145 -0.000000 -0.000000
Spine 9.341747 -10.245145 -5.016734
RightShoulder -0.580413 -26.012020 -12.093058
RightArm 22.308636 -18.906123 57.477594
RightForeArm 11.463116 -0.000000 27.932550
RightHand 1.318494 -0.000000 0.828599
RightHandThumb1 -24.326973 -0.000000 -32.862282
LeftShoulder -24.183409 40.084047 -1.567889
LeftArm 40.208428 -0.158632 -66.530651
LeftForeArm 16.151340 -0.000000 17.416363
LeftHand -27.876548 -0.000000 1.770255
LeftHandThumb1 -26.253704 0.000000 33.147579
Head -8.269865 19.870544 -6.441193
1648
root 3.021730 37.045048 4.619635 -4.043710 -1.270849 2.904228
RightUpLeg 12.087543 -7.449756 -5.806834
RightLeg -5.309751 -0.000000 0.000000
RightFoot -12.458604 -13.026517 16.472392
RightToeBase 15.471262 -0.000000 -0.000000
LeftUpLeg 9.885728 4.863919 1.723529
LeftLeg -2.395184 -0.000000 0.000000
LeftFoot -6.894183 7.284921 -16.562396
LeftToeBase 8.469225 -0.000000 -0.000000
Spine 9.351764 -10.214758 -5.039943
RightShoulder -0.225960 -25.603767 -12.218025
RightArm 23.231484 -19.005949 57.137783
RightForeArm 11.987022 0.000000 29.269812
RightHand 1.527571 -0.000000 0.380829
RightHandThumb1 -24.326973 -0.000000 -32.862282
LeftShoulder -23.778472 39.707824 -1.465177
LeftArm 40.784119 0.285259 -66.450327
LeftForeArm 15.987777 -0.000000 17.947656
LeftHand -27.566947 0.000000 1.714826
LeftHandThumb1 -26.253704 0.000000 33.147579
Head -7.918104 19.384379 -6.069570
1649
root 3.028621 37.045047 4.600266 -4.104693 -1.377507 2.916607
RightUpLeg 12.097681 -7.483226 -5.846769
RightLeg -5.311427 -0.000000 0.000000
RightFoot -12.405855 -12.906857 16.429227
RightToeBase 15.480652 -0.000000 -0.000000
LeftUpLeg 9.945310 4.958017 1.712543
LeftLeg -2.424393 -0.000000 0.000000
LeftFoot -6.866238 7.289138 -16.580442
LeftToeBase 8.480184 -0.000000 -0.000000
Spine 9.291257 -10.172245 -5.078401
RightShoulder 0.152005 -25.221236 -12.400485
RightArm 24.194670 -19.161250 56.802252
RightForeArm 12.750102 -0.000000 30.708290
RightHand 1.844563 0.000000 -0.325513
RightHandThumb1 -24.326973 -0.000000 -32.862282
LeftShoulder -23.475631 39.402651 -1.447300
LeftArm 41.428785 0.819691 -66.256608
LeftForeArm 15.604488 -0.000000 18.598733
LeftHand -27.199362 -0.000000 1.117893
LeftHandThumb1 -26.253704 0.000000 33.147579
Head -7.459718 18.937235 -5.704857
